<?xml version="1.0" encoding="UTF-8" standalone="no"?>
<!-- Created with Inkscape (http://www.inkscape.org/) -->

<svg
   xmlns:dc="http://purl.org/dc/elements/1.1/"
   xmlns:cc="http://creativecommons.org/ns#"
   xmlns:rdf="http://www.w3.org/1999/02/22-rdf-syntax-ns#"
   xmlns:svg="http://www.w3.org/2000/svg"
   xmlns="http://www.w3.org/2000/svg"
   version="1.1"
   width="545.50073"
   height="270.323"
   viewBox="0 0 545.50073 270.323"
   id="Layer_1"
   xml:space="preserve"><metadata
     id="metadata446"><rdf:RDF><cc:Work
         rdf:about=""><dc:format>image/svg+xml</dc:format><dc:type
           rdf:resource="http://purl.org/dc/dcmitype/StillImage" /><dc:title></dc:title></cc:Work></rdf:RDF></metadata><defs
     id="defs444" /><g
     transform="translate(-251.67964,-259.64825)"
     id="Polygons"><path
   d="m 380.551,403.55 c 0.379,-0.739 0.76,-1.47 1.159,-2.18 0.12,0.271 0.24,0.53 0.37,0.79 -0.16,0.96 -0.311,1.93 -0.47,2.89 -0.81,0.341 -1.671,0.681 -2.591,1.021 -24.219,9.08 -27.25,-18.68 -60.58,10.6 -18.219,16.02 -20.949,32.51 -16.189,48.67 -2.59,3.73 -5.13,7.78 -7.68,12.061 -14.45,-12.851 -38.74,-39.17 -41.27,-60.23 -5.36,-44.67 9.59,-59.08 17.15,-75.73 7.59,-16.68 35.36,-45.46 56.569,-58.58 21.221,-13.12 51,-32.31 83.311,-17.18 32.32,15.15 27.971,46.35 21.71,62.61 -10.101,26.27 -43.93,34.36 -49.47,52.52 -3.55,11.618 -3.55,18.178 -2.019,22.738 z"
   id="TelR"
   style="fill:#ed685c" />
	<path
   d="m 379.02,406.07 c 0.92,-0.34 1.781,-0.68 2.591,-1.021 -2.771,17.421 -5.351,34.69 -9.601,51.171 -16.109,-6.57 -17.689,-15.16 -37.66,-14.561 -12.34,0.38 -22.469,9.779 -32.1,23.68 -4.76,-16.16 -2.03,-32.65 16.189,-48.67 33.331,-29.279 36.362,-1.519 60.581,-10.599 z"
   id="TelA"
   style="fill:#ed985c" />
	<path
   d="m 302.25,465.34 c 2.41,8.24 6.76,16.381 12,24.34 -5.21,-2.1 -9.57,-4.25 -12.47,-6.359 -1.85,-1.34 -4.33,-3.37 -7.21,-5.92 2.55,-4.281 5.09,-8.331 7.68,-12.061 z"
   id="POR"
   style="fill:#ed5ced" />
	<path
   d="m 372.01,456.221 c -4.18,16.1 -9.959,31.449 -19.129,45.399 -12.841,-3.25 -27.631,-7.49 -38.631,-11.94 -5.24,-7.959 -9.59,-16.1 -12,-24.34 9.631,-13.9 19.76,-23.3 32.1,-23.68 19.97,-0.599 21.55,7.99 37.66,14.561 z"
   id="POA"
   style="fill:#ed5ce1" />
	<path
   d="m 427.881,467.17 c -0.291,0.5 -0.58,1.01 -0.881,1.52 -5.061,8.57 -11.119,20.181 -19.689,27.75 -5.811,5.131 -14.18,9.11 -24.44,14.281 -10.87,-1.521 -5.03,-3.201 -17.979,-6.191 -3.641,-0.84 -7.721,-1.819 -12.01,-2.909 9.17,-13.95 14.949,-29.3 19.129,-45.399 4.03,1.649 8.98,3.17 15.36,4.379 12.539,2.389 26.26,5.008 40.51,6.569 z"
   id="THyA"
   style="fill:#ed5cd5" />
	<path
   d="m 520.92,461.6 c 8.59,5.561 10.09,15.66 5.051,21.211 -2.42,2.67 -2.41,5.449 -6.9,10.459 -3.5,3.891 -9.721,9.131 -21.939,16.721 l -0.011,0 c -18.569,0.38 -59.64,3.949 -78.71,3.13 -19.71,-0.86 -29.891,-1.61 -35.54,-2.399 10.261,-5.171 18.63,-9.15 24.44,-14.281 8.57,-7.569 14.629,-19.18 19.689,-27.75 0.301,-0.51 0.59,-1.02 0.881,-1.52 21.879,2.4 45.01,2.29 67.029,-5.05 8.16,-2.72 14.57,-4.95 19.76,-6.78 1.06,2.069 2.939,4.13 6.25,6.259 z"
   id="THyB"
   style="fill:#ed5cc8" />
	<path
   d="m 531.52,481.311 c -3.289,6.84 -7.74,9.699 -10.42,12.319 l -2.029,-0.36 c 4.49,-5.01 4.48,-7.789 6.9,-10.459 5.039,-5.551 3.539,-15.65 -5.051,-21.211 -3.311,-2.129 -5.189,-4.189 -6.25,-6.26 4.1,-1.439 7.439,-2.64 10.301,-3.65 1.479,2.221 3.42,3.73 6.039,6.881 5.06,6.059 4.611,14.169 0.51,22.74 z"
   id="THyF"
   style="fill:#ed5cbd" />
	<path
   d="m 561.82,503.52 c 7.061,5.041 9.59,10.601 4.029,15.15 -5.539,4.54 -19.18,2.01 -28.279,-0.5 -9.09,-2.529 -21.711,-7.08 -33.311,-8.08 -1.64,-0.14 -4.08,-0.17 -7.129,-0.1 12.219,-7.59 18.439,-12.83 21.939,-16.721 l 2.029,0.36 c -2.25,2.21 -3.24,4.25 -1.18,8.37 3.529,7.08 13.621,4.05 21.189,3.029 7.582,-0.999 13.643,-6.557 20.713,-1.508 z"
   id="THyF_1_"
   style="fill:#ed5cbd" />
	<path
   d="m 462.82,436.891 c -0.32,0.319 -0.641,0.649 -0.98,0.989 -8.59,8.591 -7.06,3.03 -16.66,8.57 -9.02,5.229 -12.699,12.7 -17.299,20.72 -14.25,-1.561 -27.971,-4.18 -40.511,-6.57 -6.38,-1.209 -11.33,-2.729 -15.36,-4.379 4.25,-16.48 6.83,-33.75 9.601,-51.171 0.55,-0.22 1.079,-0.45 1.579,-0.67 8.08,15.06 24.671,26.511 55.671,31.22 10.349,1.58 17.629,1.679 23.959,1.291 z"
   id="PHyA"
   style="fill:#ed5c98" />
	<path
   d="m 514.67,455.34 c -5.189,1.83 -11.6,4.061 -19.76,6.78 -22.02,7.34 -45.15,7.45 -67.029,5.05 4.6,-8.02 8.279,-15.49 17.299,-20.72 9.601,-5.54 8.07,0.021 16.66,-8.57 0.34,-0.34 0.66,-0.67 0.98,-0.989 14.05,-0.871 23.41,-4.201 51.391,0.68 -0.602,2.74 -0.881,5.369 -0.881,7.38 0.01,3.729 -0.37,7.069 1.34,10.389 z"
   id="PHyB"
   style="fill:#ed5cb1" />
	<path
   d="m 521.92,441.92 c 0.73,5.09 1.701,7.73 3.051,9.77 -2.861,1.011 -6.201,2.211 -10.301,3.65 -1.71,-3.32 -1.33,-6.66 -1.34,-10.39 0,-2.011 0.279,-4.64 0.881,-7.38 1.818,0.32 3.719,0.67 5.709,1.06 0.66,0.14 1.33,0.271 1.971,0.42 -0.112,0.97 -0.1,1.93 0.029,2.87 z"
   id="PHyF"
   style="fill:#ed5ca5" />
	<path
   d="m 573.6,316.95 c 0.08,3.57 -0.029,6.96 -0.289,10.21 -1.51,-0.34 -3.02,-0.98 -4.43,-1.88 -5.541,-3.53 -15.65,-3.03 -23.221,-0.52 -7.561,2.53 -16.15,6.58 -19.18,4.56 -0.061,-0.04 -0.131,-0.09 -0.201,-0.14 1.23,-4.26 2.592,-8.41 4.031,-12.44 5.26,0.79 5.459,-3.57 16.359,-3.08 11.109,0.51 19.18,-0.5 26.76,3.54 0.061,-0.08 0.112,-0.17 0.171,-0.25 z"
   id="p1R"
   style="fill:#edbd5c" />
	<path
   d="m 568.881,325.28 c 1.41,0.9 2.92,1.54 4.43,1.88 -1.471,18.13 -7.689,32.04 -11.74,47.85 -0.631,2.46 -1.189,4.97 -1.67,7.51 -13.59,-4.62 -29.029,-4.78 -39.391,-2.68 -1.5,-18.16 1.291,-35.15 5.77,-50.66 0.07,0.05 0.141,0.1 0.201,0.14 3.029,2.02 11.619,-2.03 19.18,-4.56 7.569,-2.51 17.679,-3.01 23.22,0.52 z"
   id="p1A"
   style="fill:#edb45c" />
	<path
   d="m 559.9,382.52 c -2.08,10.89 -2.859,22.259 -2.961,32.52 -1.979,-0.97 -4.068,-1.511 -6.219,-1.399 -6.441,0.319 -13.9,2.889 -20.031,5.629 -6.049,-13.64 -9.148,-26.81 -10.18,-39.43 10.362,-2.1 25.802,-1.94 39.391,2.68 z"
   id="p1B"
   style="fill:#edac5c" />
	<path
   d="m 556.939,415.04 c -0.039,4.021 0.021,7.87 0.16,11.45 -2.199,-1.99 -4.809,-3.51 -7.91,-4.26 -5.75,-1.391 -11.42,-0.291 -16.09,2.209 -0.85,-1.729 -1.66,-3.449 -2.41,-5.17 6.131,-2.74 13.59,-5.31 20.031,-5.629 2.151,-0.111 4.241,0.43 6.219,1.4 z"
   id="p1F"
   style="fill:#eda55c" />
	<path
   d="m 452.75,323.26 c -14.13,9.09 -22.22,31.3 -26.77,42.92 -0.971,0.45 -1.94,0.93 -2.91,1.47 -0.391,-1.28 -0.76,-2.58 -1.1,-3.92 0.52,-0.21 1.02,-0.4 1.5,-0.58 10.09,-22.23 23.719,-54.04 55.029,-54.54 26.26,3.53 19.7,-16.66 32.83,-13.63 6.461,1.49 -2.01,12.29 4.029,14.13 11.621,3.53 9.09,6.58 14.65,7.58 0.1,0.02 0.201,0.03 0.301,0.05 -1.439,4.03 -2.801,8.18 -4.031,12.44 -3.148,-2.24 -10.539,-10.49 -15.959,-11.98 -5.561,-1.51 -1.471,-12.12 -3.53,-12.12 -4.55,0 -2.03,10.61 -14.649,9.59 -8.57,-0.69 -25.24,-0.5 -39.39,8.59 z"
   id="p2R"
   style="fill:#eddc5c" />
	<path
   d="m 526.279,329.18 c -4.479,15.51 -7.27,32.5 -5.77,50.66 -0.74,0.14 -1.439,0.3 -2.119,0.47 -14.131,3.53 -30.801,23.24 -40.9,29.299 -8.641,5.19 -17.67,0.73 -25.471,-2.869 -12.129,-7.961 -23.119,-20.15 -28.949,-39.09 0.97,-0.54 1.939,-1.02 2.91,-1.47 4.55,-11.62 12.64,-33.83 26.77,-42.92 14.15,-9.09 30.82,-9.28 39.391,-8.59 12.619,1.02 10.1,-9.59 14.649,-9.59 2.06,0 -2.03,10.61 3.53,12.12 5.42,1.49 12.811,9.74 15.959,11.98 z"
   id="p2A"
   style="fill:#edd45c" />
	<path
   d="m 530.689,419.27 c -3.5,1.57 -6.568,3.181 -8.77,4.471 -1.25,0.73 -2.35,1.8 -3.311,3.1 -8.51,-3.77 -18.979,-3.79 -34.299,-7.14 -9.76,-2.13 -21.471,-5.86 -32.291,-12.96 7.801,3.6 16.83,8.06 25.471,2.869 10.1,-6.06 26.77,-25.77 40.9,-29.299 0.68,-0.17 1.379,-0.33 2.119,-0.47 1.033,12.619 4.133,25.789 10.181,39.429 z"
   id="p2B"
   style="fill:#edcc5c" />
	<path
   d="m 530.689,419.27 c 0.75,1.721 1.561,3.44 2.41,5.17 -3.139,1.66 -5.83,3.961 -7.789,6.561 -2.121,-1.779 -4.33,-3.12 -6.701,-4.16 0.961,-1.3 2.061,-2.369 3.311,-3.1 2.201,-1.291 5.269,-2.901 8.769,-4.471 z"
   id="p2F"
   style="fill:#edc45c" />
	<path
   d="m 421.971,363.73 c 0.34,1.34 0.709,2.64 1.1,3.92 -5.58,3.01 -11.49,7.45 -21.82,15.19 -11.35,8.51 0.32,13.48 -18.061,21.54 -0.389,-0.729 -0.76,-1.47 -1.109,-2.22 0.109,-0.68 0.221,-1.36 0.33,-2.04 11.619,-20.55 28.819,-32.05 39.56,-36.39 z"
   id="p3R"
   style="fill:#dded5c" />
	<path
   d="m 468.4,418.68 c 5.34,4.86 2.289,10.18 -5.58,18.211 -6.33,0.389 -13.61,0.289 -23.96,-1.291 -31,-4.709 -47.591,-16.16 -55.671,-31.22 18.381,-8.06 6.711,-13.03 18.061,-21.54 10.33,-7.74 16.24,-12.18 21.82,-15.19 5.83,18.94 16.82,31.129 28.949,39.09 -1.31,-0.6 -2.58,-1.18 -3.81,-1.69 0.512,5.059 14.631,8.591 20.191,13.63 z"
   id="p3A"
   style="fill:#e6ed5c" />
	<path
   d="m 452.02,406.74 c 10.82,7.1 22.531,10.83 32.291,12.96 15.32,3.35 25.789,3.37 34.299,7.14 -2.139,2.9 -3.58,6.92 -4.398,10.73 -27.98,-4.881 -37.341,-1.551 -51.391,-0.68 7.869,-8.031 10.92,-13.351 5.58,-18.211 -5.561,-5.039 -19.68,-8.57 -20.19,-13.63 1.228,0.512 2.499,1.092 3.809,1.691 z"
   id="p3B"
   style="fill:#edec5c" />
	<path
   d="m 525.311,431 c -1.91,2.51 -3.131,5.29 -3.42,8.05 -0.641,-0.149 -1.311,-0.28 -1.971,-0.42 -1.99,-0.39 -3.891,-0.739 -5.709,-1.06 0.818,-3.811 2.26,-7.83 4.398,-10.73 2.371,1.04 4.58,2.381 6.702,4.16 z"
   id="p3F"
   style="fill:#ede45c" />
	<path
   d="m 566.48,422.98 c 1.32,1.52 2.51,3.049 3.549,4.43 -2.439,2.25 -4.789,4.5 -7.139,6.68 -0.691,-1.26 -1.451,-2.49 -2.291,-3.65 1.991,-2.59 3.942,-5.07 5.881,-7.46 z"
   id="isF"
   style="fill:#cf18ff" />
	<path
   d="m 586.26,401.45 c 2.451,3.069 4.541,6.37 6.311,9.979 -9.121,4.19 -16.121,10.061 -22.541,15.98 -1.039,-1.381 -2.229,-2.91 -3.549,-4.43 6.759,-8.359 13.24,-15.508 19.779,-21.529 z"
   id="isB"
   style="fill:#db18ff" />
	<path
   d="m 631.51,386.37 c 4.041,8.59 5.541,12.12 5.041,17.18 -0.111,1.16 -0.01,2.091 0.279,2.771 -19.5,-2.51 -33.391,0.109 -44.26,5.109 -1.77,-3.609 -3.859,-6.91 -6.311,-9.979 13.48,-12.39 27.25,-19.94 44.4,-23.17 -1.169,2.179 -0.749,4.699 0.851,8.089 z"
   id="isA"
   style="fill:#e718ff" />
	<path
   d="m 639.58,388.4 c 2.02,3.53 5.561,8.06 5.561,11.61 0,2.59 -1.891,5.44 -2.311,6.98 -0.141,0.06 -0.27,0.109 -0.4,0.16 -1.92,-0.32 -3.779,-0.601 -5.6,-0.83 -0.289,-0.68 -0.391,-1.61 -0.279,-2.771 0.5,-5.06 -1,-8.59 -5.041,-17.18 -1.6,-3.39 -2.02,-5.91 -0.85,-8.09 4.58,-0.86 9.4,-1.42 14.529,-1.67 -9.359,4.511 -7.089,9.221 -5.609,11.791 z"
   id="isR"
   style="fill:#f318ff" />
	<path
   d="m 578.99,444.95 c 1.74,2.17 2.26,5.09 2.039,8.39 -3.859,1.24 -7.379,2.57 -10.58,3.93 0.512,-1.08 0.611,-2.209 -0.049,-3.74 -1.711,-3.989 -3.58,-12.309 -7.51,-19.439 2.35,-2.18 4.699,-4.43 7.139,-6.68 1.17,1.57 2.15,2.939 2.9,3.91 3.542,4.538 2.01,8.57 6.061,13.629 z"
   id="r1F"
   style="fill:#c36eff" />
	<path
   d="m 600.199,445.45 c 0.061,1.11 0.15,2.2 0.281,3.271 -7.26,1.139 -13.73,2.77 -19.451,4.619 0.221,-3.3 -0.299,-6.22 -2.039,-8.39 -4.051,-5.06 -2.52,-9.091 -6.061,-13.63 -0.75,-0.971 -1.73,-2.34 -2.9,-3.91 6.42,-5.92 13.42,-11.79 22.541,-15.98 4.42,8.97 6.84,19.86 7.629,34.02 z"
   id="r1B"
   style="fill:#cb6eff" />
	<path
   d="m 763.301,401.52 c 3.02,5.561 -6.07,18.181 -15.66,21.211 9.09,3.529 8.59,7.569 4.539,14.649 -4.039,7.06 -15.15,12.62 -20.189,7.06 4.029,7.57 -0.5,12.631 -7.59,15.66 -7.061,3.03 -15.15,0 -17.66,-6.06 -1.52,7.06 -9.09,7.06 -15.15,7.06 -6.06,0 -11.109,-8.07 -17.17,-8.07 3.029,4.041 0.551,3.701 -5.039,3.031 -12.621,-1.521 -10.621,-8.58 -20.211,-9.61 0.051,0.14 0.09,0.271 0.131,0.409 -0.061,0.73 -0.121,1.461 -0.191,2.19 -19.109,-2.909 -35.219,-2.45 -48.629,-0.329 -0.131,-1.07 -0.221,-2.16 -0.281,-3.271 -0.789,-14.16 -3.209,-25.05 -7.629,-34.021 10.869,-5 24.76,-7.619 44.26,-5.109 0.74,1.72 2.699,1.97 5.6,0.83 0.111,0.02 0.23,0.039 0.35,0.06 -0.1,0.45 -0.02,0.75 0.33,0.87 1.521,0.5 5.561,-2.02 6.561,-6.561 1.02,-4.539 -1,-9.089 -0.5,-12.62 0.5,-3.53 3.48,-8.87 9.59,-10.1 10.1,-2.02 12.1,9.04 16.16,8.07 10.609,-2.51 16.67,-22.72 25.26,-26.25 8.57,-3.53 13.131,5.06 16.16,11.1 3.031,6.06 -2.789,12.08 0.5,13.65 8.59,4.03 12.121,-16.66 26.25,-8.59 10.59,6.06 10.609,17.68 4.051,22.21 7.567,-0.999 13.116,-3.029 16.157,2.531 z"
   id="r1A"
   style="fill:#d26eff" />
	<path
   d="m 642.43,407.15 c -2.9,1.14 -4.859,0.89 -5.6,-0.83 1.82,0.23 3.68,0.51 5.6,0.83 z"
   id="r1R"
   style="fill:#d96eff" />
	<path
   d="m 650.1,449.2 c -0.33,-0.05 -0.66,-0.101 -0.99,-0.15 0.07,-0.729 0.131,-1.46 0.191,-2.19 0.26,0.77 0.519,1.55 0.799,2.34 z"
   id="r1R_1_"
   style="fill:#d96eff" />
	<path
   d="m 650.291,449.74 c -0.42,0.08 -0.852,0.17 -1.281,0.26 0.041,-0.32 0.07,-0.63 0.1,-0.95 0.33,0.05 0.66,0.101 0.99,0.15 0.06,0.18 0.121,0.361 0.191,0.54 z"
   id="r2R"
   style="fill:#bb6eff" />
	<path
   d="m 600.48,448.721 c 13.41,-2.121 29.52,-2.58 48.629,0.329 -0.029,0.32 -0.059,0.63 -0.1,0.95 -12.32,2.52 -27.58,6.87 -43.549,15.43 -2.601,-4.95 -4.29,-10.53 -4.98,-16.709 z"
   id="r2A"
   style="fill:#b36eff" />
	<path
   d="m 600.48,448.721 c 0.689,6.18 2.379,11.76 4.98,16.709 -8.561,4.58 -17.32,10.37 -25.951,17.73 -2.459,-4.87 -3.82,-10.45 -2.039,-15.5 1.729,-4.891 3.289,-9.95 3.559,-14.32 5.721,-1.85 12.192,-3.481 19.451,-4.619 z"
   id="r2B"
   style="fill:#ac6eff" />
	<path
   d="m 581.029,453.34 c -0.27,4.37 -1.83,9.43 -3.559,14.32 -1.781,5.05 -0.42,10.63 2.039,15.5 -3.35,2.85 -6.68,5.939 -9.969,9.29 -1.75,-2.96 -3.08,-5.91 -3.691,-8.63 -4.34,-19.381 2.771,-22.641 4.6,-26.551 3.201,-1.359 6.721,-2.689 10.58,-3.929 z"
   id="r2F"
   style="fill:#9a5dff" />
	<path
   d="m 650.291,449.74 c 0.26,0.76 0.539,1.52 0.85,2.289 -0.801,0.561 -1.6,1.141 -2.381,1.73 0.031,-1.24 0.141,-2.5 0.25,-3.76 0.429,-0.089 0.861,-0.179 1.281,-0.259 z"
   id="r3R"
   style="fill:#9d6eea" />
	<path
   d="m 605.461,465.43 c 15.969,-8.56 31.229,-12.91 43.549,-15.43 -0.109,1.26 -0.219,2.52 -0.25,3.76 -12.629,9.4 -22.529,21 -25.84,28.051 -0.15,0.319 -0.299,0.649 -0.439,0.989 -7.491,-4.31 -13.241,-10.159 -17.02,-17.37 z"
   id="r3A"
   style="fill:#956eff" />
	<path
   d="m 622.48,482.8 c -2.721,6.37 -3.9,15.33 -3.641,24.3 -2.529,0.7 -5.539,1.09 -10.07,-0.039 -10.09,-2.531 -18.18,-9.601 -23.209,-15.16 -2.08,-2.28 -4.33,-5.34 -6.051,-8.74 8.631,-7.36 17.391,-13.15 25.951,-17.73 3.78,7.21 9.53,13.059 17.02,17.369 z"
   id="r3B"
   style="fill:#8e6eff" />
	<path
   d="m 619.35,514.189 0,0.011 c -3.879,1.239 -5.109,3.86 -10.07,3.45 -6.059,-0.5 -7.068,-3.03 -9.6,-3.03 -2.52,0 -5.549,1.53 -10.59,-1 -3.869,-1.94 -13.9,-11.56 -19.549,-21.17 3.289,-3.351 6.619,-6.44 9.969,-9.29 1.721,3.4 3.971,6.46 6.051,8.74 5.029,5.56 13.119,12.629 23.209,15.16 4.531,1.129 7.541,0.739 10.07,0.039 0.07,2.381 0.24,4.76 0.51,7.09 z"
   id="r3F"
   style="fill:#866eff" />
	<path
   d="m 655.52,460.07 -0.01,0.01 c -1.379,1.24 -2.67,2.51 -3.85,3.811 -2.551,-2.98 -3.02,-6.49 -2.9,-10.131 0.781,-0.59 1.58,-1.17 2.381,-1.73 1.07,2.749 2.42,5.51 4.379,8.04 z"
   id="r4R"
   style="fill:#7f6eff" />
	<path
   d="m 648.76,453.76 c -0.119,3.641 0.35,7.15 2.9,10.131 -7.07,7.699 -10.92,16.449 -12.77,25.289 -6.15,-1.479 -11.631,-3.619 -16.41,-6.38 0.141,-0.34 0.289,-0.67 0.439,-0.989 3.311,-7.051 13.212,-18.651 25.841,-28.051 z"
   id="r4A"
   style="fill:#786eff" />
	<path
   d="m 638.891,489.18 c -1.49,7.09 -1.701,14.24 -1.25,20.93 -10.09,-1.799 -4.611,-3.789 -9.68,-4.56 -3.621,-0.56 -6.012,0.72 -9.121,1.55 -0.26,-8.97 0.92,-17.93 3.641,-24.3 4.779,2.761 10.259,4.9 16.41,6.38 z"
   id="r4B"
   style="fill:#706eff" />
	<path
   d="m 637.641,510.109 c 0.15,2 0.34,3.961 0.58,5.871 -6.91,-1.42 -13.131,-2.561 -15.82,-2.36 -1.201,0.09 -2.189,0.3 -3.051,0.58 l 0,-0.011 c -0.27,-2.33 -0.439,-4.709 -0.51,-7.09 3.109,-0.83 5.5,-2.109 9.121,-1.55 5.068,0.771 -0.41,2.762 9.68,4.56 z"
   id="r4F"
   style="fill:#6e75ff" />
	<path
   d="m 663.971,467.01 c -0.471,1.24 -0.9,2.49 -1.291,3.74 -2.469,-1.15 -4.789,-2.359 -6.949,-3.59 -1.75,-0.99 -3.07,-2.09 -4.07,-3.27 1.18,-1.301 2.471,-2.57 3.85,-3.811 l 0.01,-0.01 c 2.02,2.652 4.709,5.051 8.45,6.941 z"
   id="r5R"
   style="fill:#6e7bff" />
	<path
   d="m 662.68,470.75 c -2.23,7.05 -3.32,14.109 -3.629,20.92 -1.602,-0.08 -3.211,-0.17 -4.82,-0.27 -5.49,-0.34 -10.609,-1.08 -15.34,-2.221 1.85,-8.84 5.699,-17.59 12.77,-25.289 1,1.18 2.32,2.279 4.07,3.27 2.16,1.231 4.48,2.44 6.949,3.59 z"
   id="r5A"
   style="fill:#6e84ff" />
	<path
   d="m 659.051,491.67 c -0.33,7.07 0.17,13.88 1.109,20.15 -2.85,-0.03 -5.83,-0.1 -8.961,-0.211 -6.299,-0.459 -10.6,-0.969 -13.559,-1.5 -0.451,-6.689 -0.24,-13.84 1.25,-20.93 4.73,1.141 9.85,1.881 15.34,2.221 1.61,0.1 3.219,0.19 4.821,0.27 z"
   id="r5B"
   style="fill:#6e8bff" />
	<path
   d="m 660.16,511.82 c 0.449,3.05 1,5.959 1.6,8.72 -5.16,-0.56 -14.889,-2.78 -23.539,-4.56 -0.24,-1.91 -0.43,-3.871 -0.58,-5.871 2.959,0.531 7.26,1.041 13.559,1.5 3.13,0.112 6.111,0.181 8.96,0.211 z"
   id="r5F"
   style="fill:#6e93ff" />
	<path
   d="m 677.471,470.77 c 0.109,1.701 0.209,3.48 0.32,5.34 -5.451,-1.35 -10.531,-3.239 -15.111,-5.359 0.391,-1.25 0.82,-2.5 1.291,-3.74 3.49,1.779 7.879,3.098 13.5,3.759 z"
   id="r6R"
   style="fill:#6e9bff" />
	<path
   d="m 678.881,492.221 c -6.521,0.01 -13.141,-0.191 -19.83,-0.551 0.309,-6.811 1.398,-13.87 3.629,-20.92 4.58,2.12 9.66,4.01 15.111,5.359 0.27,4.931 0.559,10.381 1.09,16.112 z"
   id="r6A"
   style="fill:#6ea1ff" />
	<path
   d="m 678.881,492.221 c 0.568,6.09 1.41,12.51 2.809,18.959 -6.27,0.5 -13.369,0.73 -21.529,0.641 -0.939,-6.271 -1.439,-13.08 -1.109,-20.15 6.688,0.358 13.307,0.559 19.829,0.55 z"
   id="r6B"
   style="fill:#6ea9ff" />
	<path
   d="m 683.211,517.391 -0.121,0.479 c -0.59,-0.13 -1.26,-0.22 -2.109,-0.22 -4.041,0 -10.1,3.029 -17.16,3.029 -0.561,0 -1.25,-0.05 -2.061,-0.14 -0.6,-2.761 -1.15,-5.67 -1.6,-8.72 8.16,0.09 15.26,-0.141 21.529,-0.641 0.442,2.072 0.952,4.142 1.522,6.213 z"
   id="r6F"
   style="fill:#6eb1ff" />
	<path
   d="m 697.83,478.26 c -0.23,0.01 -0.459,0.01 -0.68,0.02 -6.791,0.211 -13.301,-0.649 -19.359,-2.17 -0.111,-1.859 -0.211,-3.639 -0.32,-5.34 1.729,0.211 3.57,0.36 5.529,0.431 5.051,0.2 9.98,0.239 14.711,0.159 -0.08,2.34 -0.031,4.64 0.119,6.9 z"
   id="r7R"
   style="fill:#5db1ff" />
	<path
   d="m 697.83,478.26 c 0.311,4.54 1.061,8.91 2.109,13.07 -6.889,0.62 -13.92,0.88 -21.059,0.891 -0.531,-5.73 -0.82,-11.181 -1.09,-16.111 6.059,1.521 12.568,2.381 19.359,2.17 0.222,-0.01 0.451,-0.01 0.681,-0.02 z"
   id="r7A"
   style="fill:#5db8ff" />
	<path
   d="m 699.939,491.33 c 1.432,5.68 3.441,10.97 5.682,15.8 -6.672,1.89 -14.342,3.29 -23.932,4.05 -1.398,-6.449 -2.24,-12.869 -2.809,-18.959 7.14,-0.011 14.171,-0.271 21.059,-0.891 z"
   id="r7B"
   style="fill:#5dc1ff" />
	<path
   d="m 705.621,507.13 c 1.26,2.681 2.578,5.22 3.93,7.601 l 0,0.01 c -2.76,0.52 -5.061,0.38 -7.361,0.9 -4.539,1.01 -5.039,2.01 -11.1,3.029 -4.789,0.801 -5.789,-0.3 -8,-0.8 l 0.121,-0.479 c -0.57,-2.07 -1.08,-4.141 -1.521,-6.211 9.589,-0.76 17.259,-2.16 23.931,-4.05 z"
   id="r7F"
   style="fill:#5dc9ff" />
	<path
   d="m 720.52,469.79 c -0.359,2.13 -0.609,4.351 -0.699,6.649 -7.881,1 -15.66,1.601 -21.99,1.82 -0.15,-2.26 -0.199,-4.56 -0.119,-6.9 8.278,-0.149 15.987,-0.709 22.808,-1.569 z"
   id="r8R"
   style="fill:#5dd2ff" />
	<path
   d="m 719.82,476.439 c -0.141,3.711 0.141,7.641 1.07,11.791 -6.811,1.479 -13.811,2.479 -20.951,3.1 -1.049,-4.16 -1.799,-8.53 -2.109,-13.07 6.33,-0.22 14.109,-0.821 21.99,-1.821 z"
   id="r8A"
   style="fill:#5ddbff" />
	<path
   d="m 720.891,488.23 c 0.809,3.58 2.1,7.31 4.029,11.209 -6.01,3.011 -12.061,5.641 -19.299,7.69 -2.24,-4.83 -4.25,-10.12 -5.682,-15.8 7.141,-0.619 14.141,-1.619 20.952,-3.099 z"
   id="r8B"
   style="fill:#5de2ff" />
	<path
   d="m 727.6,504.27 0.01,0.021 c -2.648,1.739 -5.379,3.649 -8.238,5.8 -4,2.99 -7.121,4.131 -9.82,4.65 l 0,-0.01 c -1.352,-2.381 -2.67,-4.92 -3.93,-7.601 7.238,-2.05 13.289,-4.68 19.299,-7.69 0.778,1.58 1.669,3.19 2.679,4.83 z"
   id="r8F"
   style="fill:#5debff" />
	<path
   d="m 736.6,466.779 c 0.01,2.32 0.16,4.561 0.451,6.73 -5.42,1.211 -11.352,2.18 -17.23,2.93 0.09,-2.299 0.34,-4.52 0.699,-6.649 6.16,-0.78 11.589,-1.81 16.08,-3.011 z"
   id="r9R"
   style="fill:#5df3ff" />
	<path
   d="m 737.051,473.51 c 0.41,3.311 1.119,6.45 2.059,9.43 -5.91,2.221 -11.988,3.951 -18.219,5.291 -0.93,-4.15 -1.211,-8.08 -1.07,-11.791 5.878,-0.751 11.81,-1.719 17.23,-2.93 z"
   id="r9A"
   style="fill:#5dfcff" />
	<path
   d="m 739.109,482.939 c 0.791,2.631 1.762,5.141 2.852,7.541 -6.211,3.209 -11.611,6.24 -17.041,8.959 -1.93,-3.899 -3.221,-7.629 -4.029,-11.209 6.23,-1.339 12.308,-3.07 18.218,-5.291 z"
   id="r9B"
   style="fill:#5dfffa" />
	<path
   d="m 744.211,495.05 c -5.5,2.56 -10.852,5.47 -16.602,9.24 l -0.01,-0.021 c -1.01,-1.64 -1.9,-3.25 -2.68,-4.83 5.43,-2.719 10.83,-5.75 17.041,-8.959 0.7,1.57 1.46,3.09 2.251,4.57 z"
   id="r9F"
   style="fill:#5dfff2" />
	<path
   d="m 757.85,459.48 c -0.09,2.209 -0.139,4.449 -0.15,6.709 -1.859,0.791 -3.689,1.631 -5.52,2.5 -3.949,1.9 -9.24,3.5 -15.129,4.82 -0.291,-2.17 -0.441,-4.41 -0.451,-6.73 2.461,-0.67 4.641,-1.389 6.49,-2.149 4.43,-1.81 9.59,-3.54 14.76,-5.15 z"
   id="r10R"
   style="fill:#5dffe9" />
	<path
   d="m 757.699,466.189 c -0.01,3.041 0.07,6.131 0.23,9.23 -3.99,1.38 -8.09,2.99 -12.309,4.87 -2.15,0.95 -4.32,1.84 -6.512,2.649 -0.939,-2.979 -1.648,-6.119 -2.059,-9.43 5.889,-1.32 11.18,-2.92 15.129,-4.82 1.832,-0.868 3.662,-1.708 5.521,-2.499 z"
   id="r10A"
   style="fill:#5dffe1" />
	<path
   d="m 757.93,475.42 c 0.121,2.38 0.291,4.77 0.52,7.16 -3.318,1.449 -7.039,3.199 -11.309,5.29 -1.801,0.88 -3.52,1.75 -5.18,2.61 -1.09,-2.4 -2.061,-4.91 -2.852,-7.541 2.191,-0.81 4.361,-1.699 6.512,-2.649 4.219,-1.88 8.318,-3.49 12.309,-4.87 z"
   id="r10B"
   style="fill:#5dffd8" />
	<path
   d="m 758.449,482.58 c 0.191,2.09 0.422,4.189 0.701,6.27 -5.311,2.021 -10.18,3.971 -14.939,6.2 -0.791,-1.479 -1.551,-3 -2.25,-4.569 1.66,-0.86 3.379,-1.73 5.18,-2.61 4.269,-2.092 7.99,-3.842 11.308,-5.291 z"
   id="r10F"
   style="fill:#5dffd0" />
	<path
   d="m 778.949,453.029 c -0.969,2.521 -1.869,4.871 -2.699,7.08 l -0.01,0 -0.01,-0.01 c -6.77,1.621 -12.781,3.65 -18.531,6.09 0.012,-2.26 0.061,-4.5 0.15,-6.709 7.801,-2.44 15.641,-4.63 21.1,-6.451 z"
   id="r11R"
   style="fill:#5dffc8" />
	<path
   d="m 776.23,460.1 0.01,0.01 c -1.619,4.261 -3.029,7.971 -4.279,11.221 -4.551,1.08 -9.211,2.42 -14.031,4.09 -0.16,-3.1 -0.24,-6.189 -0.23,-9.23 5.749,-2.441 11.761,-4.47 18.53,-6.091 z"
   id="r11A"
   style="fill:#5dffbf" />
	<path
   d="m 771.961,471.33 c -1.012,2.63 -1.92,4.97 -2.762,7.061 l -0.01,0 c -3.148,1.039 -6.639,2.389 -10.74,4.189 -0.229,-2.391 -0.398,-4.78 -0.52,-7.16 4.821,-1.67 9.481,-3.01 14.032,-4.09 z"
   id="r11B"
   style="fill:#5dffb6" />
	<path
   d="m 769.189,478.391 0.01,0 c -1.25,3.119 -2.34,5.719 -3.379,7.959 -2.311,0.86 -4.529,1.68 -6.67,2.5 -0.279,-2.08 -0.51,-4.18 -0.701,-6.27 4.102,-1.801 7.592,-3.15 10.74,-4.189 z"
   id="r11F"
   style="fill:#5dffaf" />
<path
   d="m 658.857,372.261 c -6.149,1.37 -10.56,2.85 -13.67,4.35 -5.13,0.25 -9.949,0.81 -14.529,1.67 1.47,-2.78 5.52,-5.01 12.949,-7.77 0.03,-0.01 0.051,-0.01 0.08,-0.01 3.25,-0.18 6.9,0.39 10.141,0.76 1.96,0.23 3.21,0.12 5.01,0.91 l 0.019,0.09 z"
   id="m2R"
   style="fill:#d2de37" />
<path
   d="m 648.667,368.711 c 17.68,-6.06 23.22,-9.59 25.24,-15.15 2.029,-5.56 -0.5,-11.62 -12.62,-13.65 -12.12,-2 -12.62,-5.54 -25.24,-21.21 -12.63,-15.65 -23.22,-14.13 -33.33,-12.62 -10.1,1.52 -16.16,9.09 -18.689,15.67 -1.891,4.89 -6.29,6.41 -10.721,5.41 0.26,-3.25 0.37,-6.64 0.29,-10.21 7.51,-11.01 14.641,-20.45 35.17,-19.44 20.71,1 32.83,12.62 38.391,19.69 5.54,7.06 2.51,12.62 14.13,13.12 11.62,0.5 23.22,11.62 22.72,21.71 -0.5,10.1 4.55,14.15 -22.72,19.71 -0.84,0.17 -1.65,0.34 -2.431,0.52 l -0.02,-0.09 c -1.8,-0.79 -3.05,-0.68 -5.01,-0.91 -3.24,-0.37 -6.891,-0.94 -10.141,-0.76 -0.029,0 -0.05,0 -0.08,0.01 1.541,-0.58 3.222,-1.17 5.061,-1.8 z"
   id="m1R"
   style="fill:#d2de37" />
<path
   d="m 636.047,318.701 c 12.62,15.67 13.12,19.21 25.24,21.21 12.12,2.03 14.649,8.09 12.62,13.65 -2.021,5.56 -7.561,9.09 -25.24,15.15 -1.84,0.63 -3.521,1.22 -5.061,1.8 -3.56,0.21 -7,0.68 -10.52,0.97 -1.93,0.16 -3.84,0.43 -5.74,0.77 -2.41,0.42 -4.78,1.03 -7.1,1.8 -2.88,0.95 -5.55,2.4 -8.24,3.76 -1.81,0.92 -3.67,1.75 -5.47,2.71 -3.21,1.71 -6.16,3.87 -9.09,6.02 -2.391,1.76 -4.591,3.75 -6.95,5.55 -2.05,1.57 -3.891,3.41 -5.71,5.23 -0.37,0.37 -0.75,0.72 -1.141,1.07 -2.569,-2.82 -5.47,-5.46 -8.71,-7.99 -4.409,-3.45 -9.58,-6.03 -15.04,-7.88 0.48,-2.54 1.04,-5.05 1.67,-7.51 4.051,-15.81 10.271,-29.72 11.74,-47.85 4.431,1 8.83,-0.52 10.721,-5.41 2.529,-6.58 8.59,-14.15 18.689,-15.67 10.113,-1.51 20.702,-3.03 33.332,12.62 z"
   id="m1A"
   style="fill:#d2de37" />
<path
   d="m 586.257,401.451 c -0.83,-1.05 -1.7,-2.07 -2.61,-3.06 0.391,-0.35 0.771,-0.7 1.141,-1.07 1.819,-1.82 3.66,-3.66 5.71,-5.23 2.359,-1.8 4.56,-3.79 6.95,-5.55 2.93,-2.15 5.88,-4.31 9.09,-6.02 1.8,-0.96 3.66,-1.79 5.47,-2.71 2.69,-1.36 5.36,-2.81 8.24,-3.76 2.319,-0.77 4.689,-1.38 7.1,-1.8 1.9,-0.34 3.811,-0.61 5.74,-0.77 3.52,-0.29 6.96,-0.76 10.52,-0.97 -7.43,2.76 -11.479,4.99 -12.949,7.77 -17.152,3.23 -30.921,10.78 -44.402,23.17 z"
   id="m2A"
   style="fill:#d2de37" />
<path
   d="m 583.647,398.391 c 0.91,0.99 1.78,2.01 2.61,3.06 -6.54,6.02 -13.02,13.17 -19.78,21.53 -0.54,-0.63 -1.109,-1.25 -1.699,-1.87 0.789,-1.01 1.649,-1.97 2.409,-3.01 1.591,-2.17 3.24,-4.29 4.83,-6.45 1.4,-1.89 2.83,-3.74 4.29,-5.57 1.45,-1.82 3.11,-3.4 4.641,-5.13 0.819,-0.92 1.779,-1.73 2.699,-2.56 z"
   id="m2B"
   style="fill:#d2de37" />
<path
   d="m 574.937,390.401 c 3.24,2.53 6.141,5.17 8.71,7.99 -0.92,0.83 -1.88,1.64 -2.699,2.56 -1.53,1.73 -3.19,3.31 -4.641,5.13 -1.46,1.83 -2.89,3.68 -4.29,5.57 -1.59,2.16 -3.239,4.28 -4.83,6.45 -0.76,1.04 -1.62,2 -2.409,3.01 -2.32,-2.45 -4.971,-4.7 -7.841,-6.07 0.101,-10.26 0.88,-21.63 2.96,-32.52 5.46,1.85 10.631,4.43 15.04,7.88 z"
   id="m1B"
   style="fill:#d2de37" />
<path
   d="m 559.248,428.371 c 1.75,-1.59 3.1,-3.52 4.33,-5.54 0.359,-0.61 0.779,-1.17 1.2,-1.72 0.59,0.62 1.159,1.24 1.699,1.87 -1.939,2.39 -3.89,4.87 -5.88,7.46 -0.479,-0.67 -0.99,-1.31 -1.52,-1.93 l 0.171,-0.14 z"
   id="m2F"
   style="fill:#d2de37" />
<path
   d="m 556.937,415.041 c 2.87,1.37 5.521,3.62 7.841,6.07 -0.421,0.55 -0.841,1.11 -1.2,1.72 -1.23,2.02 -2.58,3.95 -4.33,5.54 l -0.17,0.14 c -0.62,-0.71 -1.28,-1.39 -1.98,-2.02 -0.14,-3.58 -0.201,-7.43 -0.161,-11.45 z"
   id="m1F"
   style="fill:#d2de37" />
        
</g><g
     transform="translate(-251.67964,-259.64825)"
     id="Original_Paths">
	<g
   id="Level_00">
	</g>
	<g
   id="Level_01">
	</g>
	<g
   id="Level_02">
	</g>
	<g
   id="Level_03">
	</g>
	<g
   id="Level_04">
	</g>
	<g
   id="Level_05">
		<path
   d="m 253.296,417.174 c -5.354,-44.673 9.593,-59.08 17.159,-75.737 7.585,-16.674 35.358,-45.452 56.57,-58.576 21.211,-13.125 50.992,-32.31 83.301,-17.177 32.328,15.15 27.979,46.344 21.713,62.611 -10.094,26.268 -43.928,34.354 -49.467,52.516 -3.551,11.619 -3.551,18.182 -2.026,22.736 12.12,-23.74 31.808,-36.362 42.924,-40.396 10.095,-22.233 23.722,-54.041 55.026,-54.543 26.268,3.533 19.705,-16.656 32.83,-13.626 6.469,1.487 -2.008,12.288 4.035,14.128 11.617,3.532 9.09,6.581 14.646,7.585 5.561,1.004 5.561,-3.533 16.658,-3.03 11.115,0.501 19.186,-0.502 26.77,3.532 7.564,-11.116 14.648,-20.708 35.34,-19.687 20.709,1.004 32.828,12.623 38.389,19.687 5.539,7.064 2.51,12.622 14.129,13.125 11.617,0.502 23.217,11.619 22.715,21.713 -0.5,10.095 4.555,14.147 -22.715,19.706 -27.273,5.54 -23.74,13.125 -21.715,16.656 2.025,3.532 5.559,8.068 5.559,11.619 0,3.532 -3.533,7.565 -2.025,8.067 1.523,0.502 5.559,-2.026 6.563,-6.563 1.021,-4.535 -1.004,-9.09 -0.504,-12.622 0.504,-3.532 3.479,-8.867 9.592,-10.094 10.096,-2.026 12.104,9.035 16.156,8.067 10.615,-2.509 16.674,-22.716 25.264,-26.249 8.57,-3.531 13.125,5.057 16.154,11.099 3.031,6.06 -2.787,12.084 0.504,13.645 8.588,4.034 12.119,-16.656 26.246,-8.588 10.598,6.06 10.617,17.679 4.053,22.215 7.566,-1.004 13.127,-3.03 16.156,2.527 3.029,5.559 -6.061,18.182 -15.652,21.212 9.09,3.532 8.588,7.565 4.535,14.649 -4.033,7.064 -15.15,12.623 -20.189,7.064 4.035,7.564 -0.5,12.622 -7.584,15.652 -7.064,3.029 -15.15,0 -17.66,-6.061 -1.523,7.064 -9.09,7.064 -15.152,7.064 -6.059,0 -11.115,-8.068 -17.176,-8.068 3.031,4.034 0.557,3.699 -5.039,3.03 -12.621,-1.524 -10.615,-8.589 -20.207,-9.612 3.533,10.616 7.586,23.74 33.834,24.744 26.25,1.021 48.984,-2.008 60.082,-6.563 11.119,-4.535 26.771,-8.569 35.861,-11.6 -6.563,17.158 -10.094,26.75 -13.123,33.313 -17.68,6.563 -29.818,11.266 -46.457,23.74 -8.086,6.061 -12.623,4.535 -17.178,5.559 -4.535,1.004 -5.037,2.007 -11.098,3.03 -6.061,1.003 -6.061,-1.023 -10.113,-1.023 -4.035,0 -10.094,3.03 -17.158,3.03 -7.064,0 -34.838,-7.566 -41.42,-7.064 -6.563,0.503 -7.064,4.537 -13.123,4.034 -6.061,-0.502 -7.064,-3.03 -9.592,-3.03 -2.529,0 -5.561,1.525 -10.598,-1.004 -5.057,-2.527 -20.635,-18.199 -23.236,-29.799 -5.541,-24.725 7.584,-23.22 4.553,-30.283 -3.029,-7.084 -6.563,-27.773 -21.211,-31.306 -14.648,-3.552 -28.775,9.091 -27.271,19.687 1.525,10.597 4.035,10.597 9.092,16.656 5.057,6.061 4.609,14.166 0.502,22.736 -6.063,12.623 -16.1,11.693 -11.6,20.69 3.531,7.083 13.625,4.053 21.191,3.03 7.584,-1.004 13.645,-6.563 20.709,-1.506 7.064,5.037 9.592,10.597 4.035,15.151 -5.541,4.535 -19.186,2.007 -28.277,-0.503 -9.09,-2.527 -21.711,-7.082 -33.313,-8.086 -11.619,-1.004 -63.652,3.996 -85.848,3.029 -57.574,-2.527 -33.834,-4.033 -53.521,-8.588 -19.688,-4.535 -52.016,-13.125 -63.113,-21.211 -11.118,-8.065 -45.454,-40.895 -48.485,-66.139 z"
   id="path149"
   style="fill:none;stroke:#000000;stroke-linecap:round;stroke-linejoin:round" />
		<path
   d="m 573.604,316.955 c 0.539,23.404 -7.252,39.41 -12.029,58.056 -4.424,17.197 -5.037,36.641 -4.479,51.476"
   id="path151"
   style="fill:none;stroke:#000000;stroke-width:2;stroke-linecap:round;stroke-linejoin:round" />
		<path
   d="m 560.59,430.445 c 27.123,-35.265 48.334,-52.032 84.602,-53.836"
   id="path153"
   style="fill:none;stroke:#000000;stroke-width:2;stroke-linecap:round;stroke-linejoin:round" />
		<path
   d="m 757.848,459.465 c -0.41,9.48 0,19.557 1.301,29.391"
   id="path155"
   style="fill:none;stroke:#000000;stroke-linecap:round;stroke-linejoin:round" />
		<path
   d="m 661.867,521.035 c -3.328,-14.983 -5.168,-34.651 2.102,-54.022"
   id="path157"
   style="fill:none;stroke:#000000;stroke-linecap:round;stroke-linejoin:round" />
		<path
   d="m 651.141,452.029 c -13.756,9.686 -24.705,22.289 -28.219,29.781 -3.793,8.031 -4.908,20.801 -3.568,32.384"
   id="path159"
   style="fill:none;stroke:#000000;stroke-linecap:round;stroke-linejoin:round" />
		<path
   d="m 570.441,457.271 c 16.844,-7.119 42.703,-13.887 79.66,-8.068"
   id="path161"
   style="fill:none;stroke:#000000;stroke-linecap:round;stroke-linejoin:round" />
		<path
   d="m 381.697,401.354 c 7.455,16.545 24.111,29.223 57.165,34.242 34.838,5.316 34.838,-6.042 81.054,3.03 0.668,0.149 1.338,0.278 1.969,0.427"
   id="path163"
   style="fill:none;stroke:#000000;stroke-width:2;stroke-linecap:round;stroke-linejoin:round" />
		<path
   d="m 744.371,495.363 c -4.334,-8.069 -7.734,-17.457 -7.771,-28.593"
   id="path165"
   style="fill:none;stroke:#000000;stroke-linecap:round;stroke-linejoin:round" />
		<path
   d="m 720.52,469.783 c -1.637,9.703 -1.041,21.266 7.084,34.483"
   id="path167"
   style="fill:none;stroke:#000000;stroke-linecap:round;stroke-linejoin:round" />
		<path
   d="m 709.551,514.732 c -6.432,-11.357 -12.398,-26.359 -11.842,-43.369"
   id="path169"
   style="fill:none;stroke:#000000;stroke-linecap:round;stroke-linejoin:round" />
		<path
   d="m 677.447,470.545 c 0.854,12.566 1.078,29.874 5.762,46.848"
   id="path171"
   style="fill:none;stroke:#000000;stroke-linecap:round;stroke-linejoin:round" />
		<path
   d="m 638.221,515.979 c -2.193,-17.568 -0.799,-39.727 17.291,-55.9"
   id="path173"
   style="fill:none;stroke:#000000;stroke-linecap:round;stroke-linejoin:round" />
		<path
   d="M 650.285,449.742 C 628.74,454 597.658,463.797 569.531,492.463"
   id="path175"
   style="fill:none;stroke:#000000;stroke-linecap:round;stroke-linejoin:round" />
		<path
   d="m 562.895,434.09 c 16.656,-15.412 33.313,-34.875 79.881,-26.881"
   id="path177"
   style="fill:none;stroke:#000000;stroke-linecap:round;stroke-linejoin:round" />
		<path
   d="M 530.307,316.731 C 519.58,346.903 513,383.71 533.096,424.442"
   id="path179"
   style="fill:none;stroke:#000000;stroke-linecap:round;stroke-linejoin:round" />
		<path
   d="m 525.307,431.004 c -9.762,-8.18 -21.416,-7.027 -40.992,-11.303 -21.434,-4.685 -52.331,-17.064 -62.351,-55.993"
   id="path181"
   style="fill:none;stroke:#000000;stroke-linecap:round;stroke-linejoin:round" />
		<path
   d="m 294.567,477.404 c 12.046,-20.263 24.129,-35.266 39.783,-35.749 24.984,-0.743 21.191,12.884 53.019,18.943 31.808,6.062 71.181,13.627 107.544,1.524 14.592,-4.87 23.572,-8.143 30.059,-10.429"
   id="path183"
   style="fill:none;stroke:#000000;stroke-linecap:round;stroke-linejoin:round" />
		<path
   d="m 382.869,510.719 c 10.262,-5.169 18.627,-9.146 24.445,-14.278 8.57,-7.565 14.631,-19.185 19.688,-27.755 5.037,-8.588 8.588,-16.676 18.181,-22.234 9.593,-5.539 8.068,0.02 16.657,-8.568 8.588,-8.59 12.12,-14.147 6.563,-19.205 -5.559,-5.037 -19.688,-8.569 -20.189,-13.625 8.57,3.531 19.186,10.614 29.279,4.555 10.095,-6.061 26.77,-25.767 40.898,-29.298 14.146,-3.532 40.395,-2.529 56.549,10.094 16.176,12.642 23.74,27.773 25.266,55.046 1.506,27.271 21.191,43.928 54.021,45.953 32.813,2.027 64.117,1.004 91.391,-11.116 9.332,-4.146 18.031,-6.99 26.342,-8.961"
   id="path185"
   style="fill:none;stroke:#000000;stroke-linecap:round;stroke-linejoin:round" />
		<path
   d="m 382.424,400.051 c -5.875,36.158 -10.114,72 -29.541,101.576"
   id="path187"
   style="fill:none;stroke:#000000;stroke-linecap:round;stroke-linejoin:round" />
		<path
   d="m 769.189,478.39 c -5.707,1.878 -12.512,4.796 -22.051,9.481 -28.795,14.128 -38.387,25.746 -95.941,23.74 -27.773,-2.027 -16.676,-5.058 -23.238,-6.062 -6.563,-1.022 -9.09,4.034 -19.184,1.507 -10.096,-2.529 -18.182,-9.594 -23.219,-15.152 -5.057,-5.559 -11.117,-15.652 -8.086,-24.24 3.029,-8.57 5.557,-17.66 1.521,-22.718 -4.053,-5.056 -2.527,-9.09 -6.059,-13.626 -3.533,-4.555 -12.121,-18.182 -22.215,-17.68 -10.113,0.502 -22.736,6.563 -28.797,10.095 -6.059,3.531 -8.588,15.15 -8.588,21.211 0.018,6.06 -1.004,11.117 7.584,16.657 8.59,5.559 10.096,15.652 5.057,21.211 -4.313,4.74 -0.91,9.834 -28.852,27.178"
   id="path189"
   style="fill:none;stroke:#000000;stroke-linecap:round;stroke-linejoin:round;stroke-dasharray:10, 2" />
		<path
   d="m 649.301,446.861 c -0.557,7.436 -2.473,15.225 6.432,20.301 10.615,6.06 25.246,11.618 41.42,11.116 16.154,-0.502 42.402,-3.532 55.025,-9.593 7.473,-3.588 15.096,-6.432 24.057,-8.588"
   id="path191"
   style="fill:none;stroke:#000000;stroke-linecap:round;stroke-linejoin:round;stroke-dasharray:10, 2" />
		<path
   d="m 314.271,489.711 c -15.522,-23.572 -23.349,-48.854 4.165,-73.039 33.332,-29.28 36.361,-1.525 60.585,-10.598 24.24,-9.09 10.113,-14.146 22.233,-23.237 12.12,-9.09 18.162,-13.625 24.726,-16.656 4.554,-11.619 12.641,-33.834 26.769,-42.924 14.146,-9.091 30.822,-9.276 39.394,-8.588 12.621,1.022 10.094,-9.592 14.648,-9.592 2.063,0 -2.027,10.614 3.531,12.12 5.541,1.524 13.125,10.095 16.154,12.121 3.031,2.026 11.619,-2.026 19.186,-4.555 7.566,-2.51 17.678,-3.012 23.219,0.521 5.559,3.532 12.623,3.03 15.15,-3.532 2.527,-6.581 8.588,-14.147 18.684,-15.671 10.111,-1.506 20.709,-3.031 33.332,12.622 12.623,15.671 13.123,19.204 25.246,21.211 12.119,2.026 14.648,8.086 12.621,13.645 -2.025,5.559 -7.566,9.091 -25.244,15.151 -17.68,6.042 -21.213,9.071 -17.16,17.661 4.035,8.588 5.541,12.121 5.037,17.177 -0.408,4.201 1.971,5.261 6.285,3.439"
   id="path193"
   style="fill:none;stroke:#000000;stroke-linecap:round;stroke-linejoin:round;stroke-dasharray:10, 2" />
	</g>
	<g
   id="Level_06">
	</g>
	<g
   id="Level_07">
	</g>
	<g
   id="Level_08">
	</g>
	<g
   id="Level_09">
	</g>
	<g
   id="Level_10">
	</g>
	<g
   id="Level_11">
	</g>
	<g
   id="Level_12">
	</g>
</g><g
     transform="translate(-251.67964,-259.64825)"
     id="Labels">
	<text
   transform="translate(251.1401,276.0195)"
   id="text203"
   style="font-size:12px;font-family:ArialMT">Level 05</text>





	<text
   transform="translate(326.7715,354.6445)"
   id="text205"
   style="font-size:9px;font-family:ArialMT">TelR</text>





	<text
   transform="translate(402.3076,390.6543)"
   id="text207"
   style="font-size:9px;font-family:ArialMT">p3R</text>





	<text
   transform="matrix(0.9487,-0.3161,0.3161,0.9487,630.4414,463.1104)"
   id="text209"
   style="font-size:9px;font-family:ArialMT">r3R</text>





	<text
   transform="matrix(0.9225,-0.3859,0.3859,0.9225,637.4375,471.75)"
   id="text211"
   style="font-size:9px;font-family:ArialMT">r4R</text>





	<text
   transform="matrix(0.9225,-0.3859,0.3859,0.9225,648.667,479.3984)"
   id="text213"
   style="font-size:9px;font-family:ArialMT">r5R</text>





	<text
   transform="matrix(0.8938,-0.4485,0.4485,0.8938,670.417,469.1777)"
   id="text215"
   style="font-size:9px;font-family:ArialMT">r6R</text>





	<text
   transform="matrix(0.8938,-0.4485,0.4485,0.8938,687.9639,472.1367)"
   id="text217"
   style="font-size:9px;font-family:ArialMT">r7R</text>





	<text
   transform="matrix(0.8938,-0.4485,0.4485,0.8938,705.5889,472.5781)"
   id="text219"
   style="font-size:9px;font-family:ArialMT">r8R</text>





	<text
   transform="matrix(0.8938,-0.4485,0.4485,0.8938,725.6514,468.8164)"
   id="text221"
   style="font-size:9px;font-family:ArialMT">r9R</text>





	<text
   transform="matrix(0.8938,-0.4485,0.4485,0.8938,743.4424,463.8242)"
   id="text223"
   style="font-size:9px;font-family:ArialMT">r10R</text>





	<text
   transform="matrix(0.8938,-0.4485,0.4485,0.8938,765.8428,454.8281)"
   id="text225"
   style="font-size:9px;font-family:ArialMT">r11R</text>





	<text
   transform="matrix(0.9851,-0.1717,0.1717,0.9851,776.2451,468.7109)"
   id="text227"
   style="font-size:9px;font-family:ArialMT">r11A</text>





	<text
   transform="translate(338.8145,423.0098)"
   id="text229"
   style="font-size:9px;font-family:ArialMT">TelA</text>





	<text
   transform="matrix(0.9875,-0.1575,0.1575,0.9875,723.7373,494.6963)"
   id="text231"
   style="font-size:9px;font-family:ArialMT">r9B</text>





	<text
   transform="matrix(0.9678,-0.2518,0.2518,0.9678,772.9766,479.2949)"
   id="text233"
   style="font-size:9px;font-family:ArialMT">r11B</text>





	<text
   transform="matrix(0.9411,-0.338,0.338,0.9411,741.8652,488.5752)"
   id="text235"
   style="font-size:9px;font-family:ArialMT">r10B</text>





	<text
   transform="translate(705.6328,500.0254)"
   id="text237"
   style="font-size:9px;font-family:ArialMT">r8B</text>





	<text
   transform="matrix(1,0.0079,-0.0079,1,684.5176,504.2676)"
   id="text239"
   style="font-size:9px;font-family:ArialMT">r7B</text>





	<text
   transform="translate(662.457,504.2666)"
   id="text241"
   style="font-size:9px;font-family:ArialMT">r6B</text>





	<text
   transform="translate(641.0195,504.2656)"
   id="text243"
   style="font-size:9px;font-family:ArialMT">r5B</text>





	<text
   transform="translate(620.8613,500.0264)"
   id="text245"
   style="font-size:9px;font-family:ArialMT">r4B</text>





	<text
   transform="translate(626.1445,483.2402)"
   id="text247"
   style="font-size:9px;font-family:ArialMT">r4A</text>





	<text
   transform="translate(583.7891,464.9199)"
   id="text249"
   style="font-size:9px;font-family:ArialMT">r2B</text>





	<text
   transform="translate(580.9707,435.9609)"
   id="text251"
   style="font-size:9px;font-family:ArialMT">r1B</text>





	<text
   transform="translate(594.9746,492.0625)"
   id="text253"
   style="font-size:9px;font-family:ArialMT">r3B</text>





	<text
   transform="translate(695.3828,415.2852)"
   id="text255"
   style="font-size:9px;font-family:ArialMT">r1A</text>





	<text
   transform="translate(587.9727,355.8809)"
   id="text257"
   style="font-size:9px;font-family:ArialMT">m1A</text>





	<text
   transform="translate(608.334,320.0586)"
   id="text259"
   style="font-size:9px;font-family:ArialMT">m1R</text>





	<text
   transform="matrix(0.9999,0.013,-0.013,0.9999,429.8154,489.71)"
   id="text261"
   style="font-size:9px;font-family:ArialMT">THyB</text>





	<text
   transform="matrix(0.9999,0.013,-0.013,0.9999,393.8047,444.6309)"
   id="text263"
   style="font-size:9px;font-family:ArialMT">PHyA</text>





	<text
   transform="matrix(0.9999,0.013,-0.013,0.9999,373.1836,483.1113)"
   id="text265"
   style="font-size:9px;font-family:ArialMT">THyA</text>





	<text
   transform="translate(454.1895,331.2051)"
   id="text267"
   style="font-size:9px;font-family:ArialMT">p2R</text>





	<text
   transform="translate(410.0918,407.3359)"
   id="text269"
   style="font-size:9px;font-family:ArialMT">p3A</text>





	<text
   transform="translate(465.1895,363.709)"
   id="text271"
   style="font-size:9px;font-family:ArialMT">p2A</text>





	<text
   transform="translate(493.2988,403.5273)"
   id="text273"
   style="font-size:9px;font-family:ArialMT">p2B</text>





	<text
   transform="translate(529.832,390.6543)"
   id="text275"
   style="font-size:9px;font-family:ArialMT">p1B</text>





	<text
   transform="translate(560.0898,402.0508)"
   id="text277"
   style="font-size:9px;font-family:ArialMT">m1B</text>





	<text
   transform="matrix(0.7607,-0.6491,0.6491,0.7607,580.5967,418.3379)"
   id="text279"
   style="font-size:9px;font-family:ArialMT">isB</text>





	<text
   transform="matrix(0.9999,0.013,-0.013,0.9999,535.4043,514.7324)"
   id="text281"
   style="font-size:9px;font-family:ArialMT">THyF</text>





	<text
   transform="matrix(0.9999,0.013,-0.013,0.9999,454.1895,455.3574)"
   id="text283"
   style="font-size:9px;font-family:ArialMT">PHyB</text>





	<text
   transform="translate(475.4219,430.4453)"
   id="text285"
   style="font-size:9px;font-family:ArialMT">p3B</text>





	<text
   transform="translate(604.1113,399.6123)"
   id="text287"
   style="font-size:9px;font-family:ArialMT">isA</text>





	<text
   transform="translate(605.5293,457.1953)"
   id="text289"
   style="font-size:9px;font-family:ArialMT">r2A</text>





	<text
   transform="translate(611.123,470.5449)"
   id="text291"
   style="font-size:9px;font-family:ArialMT">r3A</text>





	<text
   transform="translate(722.6875,483.2402)"
   id="text293"
   style="font-size:9px;font-family:ArialMT">r9A</text>





	<text
   transform="translate(701.3613,486.5117)"
   id="text295"
   style="font-size:9px;font-family:ArialMT">r8A</text>





	<text
   transform="matrix(0.9392,-0.3434,0.3434,0.9392,739.4922,481.3359)"
   id="text297"
   style="font-size:9px;font-family:ArialMT">r10A</text>





	<text
   transform="translate(535.3672,355.166)"
   id="text299"
   style="font-size:9px;font-family:ArialMT">p1A</text>





	<text
   transform="matrix(1,0.0079,-0.0079,1,681.9766,488.8564)"
   id="text301"
   style="font-size:9px;font-family:ArialMT">r7A</text>





	<text
   transform="translate(661.457,488.0293)"
   id="text303"
   style="font-size:9px;font-family:ArialMT">r6A</text>





	<text
   transform="translate(643.1074,487.7393)"
   id="text305"
   style="font-size:9px;font-family:ArialMT">r5A</text>





	<text
   transform="matrix(0.9999,0.013,-0.013,0.9999,329.2715,468.0527)"
   id="text307"
   style="font-size:9px;font-family:ArialMT">POA</text>





	<text
   transform="matrix(0.9999,0.013,-0.013,0.9999,288.1016,495.3633)"
   id="text309"
   style="font-size:9px;font-family:ArialMT">POR</text>





	<text
   transform="translate(617.3906,390.6553)"
   id="text311"
   style="font-size:9px;font-family:ArialMT">isR</text>





	<text
   transform="translate(539.7383,334.127)"
   id="text313"
   style="font-size:9px;font-family:ArialMT">p1R</text>





	<text
   transform="translate(506.6895,415.2852)"
   id="text315"
   style="font-size:9px;font-family:ArialMT">p2F</text>





	<text
   transform="translate(534.3516,409.2588)"
   id="text317"
   style="font-size:9px;font-family:ArialMT">p1F</text>





	<text
   transform="translate(539.3828,433.0039)"
   id="text319"
   style="font-size:8px;font-family:ArialMT">m1F</text>





	<text
   transform="matrix(0.9999,0.013,-0.013,0.9999,487.6016,450.8389)"
   id="text321"
   style="font-size:9px;font-family:ArialMT">PHyF</text>





	<text
   transform="matrix(0.5473,-0.837,0.837,0.5473,528.665,445.2949)"
   id="text323"
   style="font-size:9px;font-family:ArialMT">p3F</text>





	<text
   transform="matrix(1,0.0079,-0.0079,1,691.0713,527.4434)"
   id="text325"
   style="font-size:9px;font-family:ArialMT">r7F</text>





	<text
   transform="translate(665.248,529.8438)"
   id="text327"
   style="font-size:9px;font-family:ArialMT">r6F</text>





	<text
   transform="translate(641.0195,528.418)"
   id="text329"
   style="font-size:9px;font-family:ArialMT">r5F</text>





	<text
   transform="translate(619.8613,525.0879)"
   id="text331"
   style="font-size:9px;font-family:ArialMT">r4F</text>





	<text
   transform="matrix(0.02,0.9998,-0.9998,0.02,567.7617,466.8057)"
   id="text333"
   style="font-size:9px;font-family:ArialMT">r2F</text>





	<text
   transform="matrix(0.3722,0.9282,-0.9282,0.3722,567.4287,437.5713)"
   id="text335"
   style="font-size:9px;font-family:ArialMT">r1F</text>





	<text
   transform="translate(590.75,513.5195)"
   id="text337"
   style="font-size:9px;font-family:ArialMT">r3F</text>





	<text
   transform="matrix(0.6015,0.7989,-0.7989,0.6015,552.9404,437.4727)"
   id="text339"
   style="font-size:9px;font-family:ArialMT">isF</text>





	<text
   transform="translate(731.3613,510.0098)"
   id="text341"
   style="font-size:9px;font-family:ArialMT">r9F</text>





	<text
   transform="translate(764.4922,494.4629)"
   id="text343"
   style="font-size:9px;font-family:ArialMT">r11F</text>





	<text
   transform="translate(745.5059,502.4268)"
   id="text345"
   style="font-size:9px;font-family:ArialMT">r10F</text>





	<text
   transform="translate(713.1406,519.7207)"
   id="text347"
   style="font-size:9px;font-family:ArialMT">r8F</text>





	<text
   transform="translate(313.4395,390.6543)"
   id="text349"
   style="font-size:9px;font-family:ArialMT">roof plate</text>





	<line
   x1="338.814"
   y1="393.577"
   x2="343.13199"
   y2="402.974"
   id="line351"
   style="fill:none;stroke:#000000;stroke-width:0.5" />
	<text
   transform="translate(533.0957,297.6543)"
   id="text353"
   style="font-size:9px;font-family:ArialMT">roof plate</text>





	<line
   x1="528.60199"
   y1="300.577"
   x2="512.93597"
   y2="312.33499"
   id="line355"
   style="fill:none;stroke:#000000;stroke-width:0.5" />
	<line
   x1="573.62903"
   y1="297.01999"
   x2="585.93597"
   y2="306.457"
   id="line357"
   style="fill:none;stroke:#000000;stroke-width:0.5" />
	<text
   transform="translate(540.7383,467.8418)"
   id="text359"
   style="font-size:9px;font-family:ArialMT">floor </text>





	<text
   transform="translate(540.7383,478.6406)"
   id="text361"
   style="font-size:9px;font-family:ArialMT">plate</text>





	<line
   x1="538.45898"
   y1="464.51401"
   x2="526.59802"
   y2="459.91199"
   id="line363"
   style="fill:none;stroke:#000000;stroke-width:0.5" />
	<line
   x1="562.09003"
   y1="462.51801"
   x2="572.18402"
   y2="451.20499"
   id="line365"
   style="fill:none;stroke:#000000;stroke-width:0.5" />
	
		<line
   x1="408.26801"
   y1="382.931"
   x2="405.34601"
   y2="376.60901"
   id="line367"
   style="fill:none;stroke:#000000;stroke-width:0.5;stroke-linecap:round;stroke-linejoin:round;stroke-dasharray:10, 2" />
	
		<line
   x1="462.44501"
   y1="323.48099"
   x2="460.26801"
   y2="316.95499"
   id="line369"
   style="fill:none;stroke:#000000;stroke-width:0.5;stroke-linecap:round;stroke-linejoin:round;stroke-dasharray:10, 2" />
	
		<line
   x1="549.85901"
   y1="326.40302"
   x2="549.68597"
   y2="320.21799"
   id="line371"
   style="fill:none;stroke:#000000;stroke-width:0.5;stroke-linecap:round;stroke-linejoin:round;stroke-dasharray:10, 2" />
	
		<line
   x1="617.39099"
   y1="310.68701"
   x2="623.89099"
   y2="305.07599"
   id="line373"
   style="fill:none;stroke:#000000;stroke-width:0.5;stroke-linecap:round;stroke-linejoin:round;stroke-dasharray:10, 2" />
	
		<line
   x1="630.38898"
   y1="388.254"
   x2="633.15601"
   y2="388.254"
   id="line375"
   style="fill:none;stroke:#000000;stroke-width:0.5;stroke-linecap:round;stroke-linejoin:round;stroke-dasharray:10, 2" />
	
		<line
   x1="510.20099"
   y1="448.42499"
   x2="515.55499"
   y2="448.58499"
   id="line377"
   style="fill:none;stroke:#000000;stroke-width:0.5;stroke-linecap:round;stroke-linejoin:round;stroke-dasharray:10, 2" />
	
		<line
   x1="525.30701"
   y1="436.90799"
   x2="520.77002"
   y2="434.09"
   id="line379"
   style="fill:none;stroke:#000000;stroke-width:0.5;stroke-linecap:round;stroke-linejoin:round;stroke-dasharray:10, 2" />
	
		<line
   x1="521.88501"
   y1="418.20901"
   x2="525.30701"
   y2="424.44199"
   id="line381"
   style="fill:none;stroke:#000000;stroke-width:0.5;stroke-linecap:round;stroke-linejoin:round;stroke-dasharray:10, 2" />
	
		<line
   x1="542.10498"
   y1="410.258"
   x2="543.383"
   y2="418.20901"
   id="line383"
   style="fill:none;stroke:#000000;stroke-width:0.5;stroke-linecap:round;stroke-linejoin:round;stroke-dasharray:10, 2" />
	<path
   d="m 658.833,372.167 c -1.799,-0.786 -3.041,-0.675 -5.01,-0.901 -3.235,-0.372 -6.881,-0.946 -10.131,-0.762 -3.593,0.203 -7.059,0.687 -10.607,0.982 -1.927,0.16 -3.837,0.422 -5.74,0.761 -2.405,0.429 -4.779,1.038 -7.1,1.803 -2.874,0.947 -5.545,2.403 -8.236,3.764 -1.814,0.917 -3.666,1.744 -5.474,2.707 -3.212,1.714 -6.16,3.874 -9.088,6.025 -2.388,1.755 -4.594,3.741 -6.947,5.541 -2.055,1.57 -3.891,3.41 -5.713,5.237 -1.241,1.245 -2.667,2.313 -3.837,3.627 -1.536,1.726 -3.19,3.315 -4.64,5.125 -1.466,1.83 -2.897,3.686 -4.29,5.571 -1.596,2.161 -3.238,4.287 -4.828,6.451 -1.185,1.612 -2.58,3.028 -3.62,4.738 -1.225,2.013 -2.574,3.94 -4.322,5.539"
   id="path385"
   style="fill:none;stroke:#000000" />
	
		<line
   x1="560.59003"
   y1="434.09"
   x2="562.89502"
   y2="431.004"
   id="line387"
   style="fill:none;stroke:#000000;stroke-width:0.5;stroke-linecap:round;stroke-linejoin:round;stroke-dasharray:10, 2" />
	
		<line
   x1="627.94702"
   y1="516.44098"
   x2="627.86298"
   y2="511.99701"
   id="line389"
   style="fill:none;stroke:#000000;stroke-width:0.5;stroke-linecap:round;stroke-linejoin:round;stroke-dasharray:10, 2" />
	
		<line
   x1="646.47302"
   y1="521.03497"
   x2="648.73798"
   y2="517.32001"
   id="line391"
   style="fill:none;stroke:#000000;stroke-width:0.5;stroke-linecap:round;stroke-linejoin:round;stroke-dasharray:10, 2" />
	
		<line
   x1="671.99799"
   y1="522.11902"
   x2="671.99799"
   y2="518.026"
   id="line393"
   style="fill:none;stroke:#000000;stroke-width:0.5;stroke-linecap:round;stroke-linejoin:round;stroke-dasharray:10, 2" />
	
		<line
   x1="701.36102"
   y1="520.07202"
   x2="698.58398"
   y2="514.73199"
   id="line395"
   style="fill:none;stroke:#000000;stroke-width:0.5;stroke-linecap:round;stroke-linejoin:round;stroke-dasharray:10, 2" />
	
		<line
   x1="723.69501"
   y1="511.83801"
   x2="719.90399"
   y2="507.60901"
   id="line397"
   style="fill:none;stroke:#000000;stroke-width:0.5;stroke-linecap:round;stroke-linejoin:round;stroke-dasharray:10, 2" />
	
		<line
   x1="739.96698"
   y1="500.026"
   x2="736.83197"
   y2="497.38501"
   id="line399"
   style="fill:none;stroke:#000000;stroke-width:0.5;stroke-linecap:round;stroke-linejoin:round;stroke-dasharray:10, 2" />
	
		<line
   x1="754.758"
   y1="493.01001"
   x2="753.26801"
   y2="489.43399"
   id="line401"
   style="fill:none;stroke:#000000;stroke-width:0.5;stroke-linecap:round;stroke-linejoin:round;stroke-dasharray:10, 2" />
	
		<line
   x1="764.01001"
   y1="491.39401"
   x2="762.422"
   y2="486.41199"
   id="line403"
   style="fill:none;stroke:#000000;stroke-width:0.5;stroke-linecap:round;stroke-linejoin:round;stroke-dasharray:10, 2" />
	
		<line
   x1="773.229"
   y1="477.40399"
   x2="769.18903"
   y2="478.39001"
   id="line405"
   style="fill:none;stroke:#000000;stroke-width:0.5;stroke-linecap:round;stroke-linejoin:round;stroke-dasharray:10, 2" />
	
		<line
   x1="776.23401"
   y1="468.74701"
   x2="771.01398"
   y2="468.14499"
   id="line407"
   style="fill:none;stroke:#000000;stroke-width:0.5;stroke-linecap:round;stroke-linejoin:round;stroke-dasharray:10, 2" />
	
		<line
   x1="773.229"
   y1="452.13699"
   x2="771.01398"
   y2="459.035"
   id="line409"
   style="fill:none;stroke:#000000;stroke-width:0.5;stroke-linecap:round;stroke-linejoin:round;stroke-dasharray:10, 2" />
	
		<line
   x1="754.758"
   y1="458.69601"
   x2="754.01398"
   y2="463.38501"
   id="line411"
   style="fill:none;stroke:#000000;stroke-width:0.5;stroke-linecap:round;stroke-linejoin:round;stroke-dasharray:10, 2" />
	
		<line
   x1="734.60199"
   y1="464.80701"
   x2="733.60199"
   y2="470.54501"
   id="line413"
   style="fill:none;stroke:#000000;stroke-width:0.5;stroke-linecap:round;stroke-linejoin:round;stroke-dasharray:10, 2" />
	
		<line
   x1="717.26801"
   y1="468.14499"
   x2="716.93597"
   y2="471.75601"
   id="line415"
   style="fill:none;stroke:#000000;stroke-width:0.5;stroke-linecap:round;stroke-linejoin:round;stroke-dasharray:10, 2" />
	
		<line
   x1="696.06097"
   y1="467.67599"
   x2="695.383"
   y2="473.52701"
   id="line417"
   style="fill:none;stroke:#000000;stroke-width:0.5;stroke-linecap:round;stroke-linejoin:round;stroke-dasharray:10, 2" />
	
		<line
   x1="676.46301"
   y1="466.40201"
   x2="674.54303"
   y2="471.104"
   id="line419"
   style="fill:none;stroke:#000000;stroke-width:0.5;stroke-linecap:round;stroke-linejoin:round;stroke-dasharray:10, 2" />
	
		<line
   x1="654.50201"
   y1="468.14499"
   x2="656.60199"
   y2="465.89099"
   id="line421"
   style="fill:none;stroke:#000000;stroke-width:0.5;stroke-linecap:round;stroke-linejoin:round;stroke-dasharray:10, 2" />
	
		<line
   x1="647.60498"
   y1="460.078"
   x2="650.28497"
   y2="459.13901"
   id="line423"
   style="fill:none;stroke:#000000;stroke-width:0.5;stroke-linecap:round;stroke-linejoin:round;stroke-dasharray:10, 2" />
	
		<line
   x1="645.758"
   y1="453.51999"
   x2="648.94501"
   y2="452.02899"
   id="line425"
   style="fill:none;stroke:#000000;stroke-width:0.5;stroke-linecap:round;stroke-linejoin:round;stroke-dasharray:10, 2" />
	
		<line
   x1="295.80701"
   y1="486.41199"
   x2="302.25"
   y2="477.51001"
   id="line427"
   style="fill:none;stroke:#000000;stroke-width:0.5;stroke-linecap:round;stroke-linejoin:round;stroke-dasharray:10, 2" />
	<text
   transform="translate(612,369.8809)"
   id="text429"
   style="font-size:9px;font-family:ArialMT">m2A</text>





	
		<line
   x1="622.09198"
   y1="371.07101"
   x2="622.86902"
   y2="376.37"
   id="line431"
   style="fill:none;stroke:#000000;stroke-width:0.5;stroke-linecap:round;stroke-linejoin:round;stroke-dasharray:10, 2" />
	<text
   transform="translate(574.6309,390.2554)"
   id="text433"
   style="font-size:9px;font-family:ArialMT">m2B</text>





	
		<line
   x1="555.49902"
   y1="429.505"
   x2="559.40002"
   y2="425.819"
   id="line435"
   style="fill:none;stroke:#000000;stroke-width:0.5;stroke-linecap:round;stroke-linejoin:round;stroke-dasharray:10, 2" />
	
		<line
   x1="582.88501"
   y1="391.88"
   x2="583.46301"
   y2="402.10001"
   id="line437"
   style="fill:none;stroke:#000000;stroke-width:0.5;stroke-linecap:round;stroke-linejoin:round;stroke-dasharray:10, 2" />
	<text
   transform="translate(638.2207,365.5298)"
   id="text439"
   style="font-size:9px;font-family:ArialMT">m2R</text>





	
		<line
   x1="645.19501"
   y1="366.95801"
   x2="646.32001"
   y2="373.979"
   id="line441"
   style="fill:none;stroke:#000000;stroke-width:0.5;stroke-linecap:round;stroke-linejoin:round;stroke-dasharray:10, 2" />
</g></svg>